<svg xmlns="http://www.w3.org/2000/svg" width="48" height="48"><defs><linearGradient x1="10.47" y1="14.587" x2="66.908" y2="62.79" gradientUnits="userSpaceOnUse" id="a"><stop offset="0" stop-opacity=".3"/><stop offset="1" stop-opacity="0"/></linearGradient></defs><g fill="none" stroke-width="none" stroke-miterlimit="10" font-family="none" font-weight="none" font-size="none" text-anchor="none" style="mix-blend-mode:normal"><path d="M2 24C2 11.85 11.85 2 24 2s22 9.85 22 22-9.85 22-22 22S2 36.15 2 24z" fill="#26a69a"/><path d="M15.764 33.413L10.47 24l5.294-9.413h4.706l4.344 4.344 2.716-4.344h4.706l13.403 13.404c-1.64 8.95-8.697 16.008-17.648 17.648z" fill="url(#a)"/><path d="M32.236 14.587H27.53l-9.29 14.86L15.177 24l5.294-9.413h-4.706L10.47 24l5.294 9.413h4.706l9.29-14.86L32.823 24l-5.294 9.413h4.706L37.531 24z"/><path d="M37.53 24l-5.294 9.413H27.53L32.824 24l-3.065-5.447-9.289 14.86h-4.706L10.47 24l5.294-9.413h4.706L15.176 24l3.065 5.447 9.289-14.86h4.706z" fill="#fff"/><path d="M2 24C2 11.85 11.85 2 24 2s22 9.85 22 22-9.85 22-22 22S2 36.15 2 24z"/><path d="M2 2h44v22H2z"/><path d="M2 24V2h44v22z"/><path d="M2 24V2h44v22z"/><path d="M2 24V2h44v22z"/><path d="M2 24V2h44v22z"/></g></svg>